{"title":"The Last House on the Left Unrated2009.{HINDI}-DVDRip.aaaevilach","uid":5843928,"size":733660943,"categoryP":"video","categoryS":"movies","magnet":"?xt=urn:btih:dd79d4ac1d54e6970ee44a3ae69b939619c2b596&amp;dn=The+Last+House+on+the+Left+Unrated2009.%7BHINDI%7D-DVDRip.aaaevilach&amp;tr=udp%3A%2F%2Ftracker.openbittorrent.com%3A80&amp;tr=udp%3A%2F%2Fopen.demonii.com%3A1337&amp;tr=udp%3A%2F%2Ftracker.coppersurfer.tk%3A6969&amp;tr=udp%3A%2F%2Fexodus.desync.com%3A6969","seeders":0,"leechers":0,"uploader":"achaevil","files":3,"time":1285081317,"description":"General\nComplete name : The Last House on the Left [Unrated]2009.Hindi-DVDRip.aaaevilacharya\nFormat : Matroska\nFile size : 699 MiB\nDuration : 1h 43mn\nOverall bit rate : 948 Kbps\nEncoded date : UTC 2010-09-21 19:14:35\n\n\nVideo\nID : 1\nFormat : MPEG-4 Visual\nFormat profile : Advanced Simple@L5\nFormat settings, BVOP : Yes\nFormat settings, QPel : No\nFormat settings, GMC : No warppoints\nFormat settings, Matrix : Default (H.263)\nCodec ID : XVID\nCodec ID/Hint : XviD\nDuration : 1h 43mn\nBit rate : 801 Kbps\nWidth : 640 pixels\nHeight : 400 pixels\nDisplay aspect ratio : 2.045\nOriginal display aspect ratio : 1.600\nFrame rate : 25.000 fps\nColor space : YUV\nChroma subsampling : 4:2:0\nBit depth : 8 bits\nScan type : Progressive\nBits/(Pixel*Frame) : 0.125\nStream size : 591 MiB (85%)\nWriting library : XviD 1.2.1\nLanguage : Hindi\n\nAudio\nID : 2\nFormat : MPEG Audio\nFormat version : Version 1\nFormat profile : Layer 3\nMode : Joint stereo\nMode extension : MS Stereo\nCodec ID : A_MPEG/L3\nCodec ID/Hint : MP3\nDuration : 1h 43mn\nBit rate mode : Constant\nBit rate : 128 Kbps\nChannel(s) : 2 channels\nSampling rate : 48.0 KHz\nStream size : 94.5 MiB (14%)\nWriting library : LAME3.98r\n\nseeds &amp; enjoy.","torrent":{"xt":"urn:btih:dd79d4ac1d54e6970ee44a3ae69b939619c2b596","amp;dn":"The+Last+House+on+the+Left+Unrated2009.%7BHINDI%7D-DVDRip.aaaevilach","amp;tr":["udp%3A%2F%2Ftracker.openbittorrent.com%3A80","udp%3A%2F%2Fopen.demonii.com%3A1337","udp%3A%2F%2Ftracker.coppersurfer.tk%3A6969","udp%3A%2F%2Fexodus.desync.com%3A6969"],"infoHash":"dd79d4ac1d54e6970ee44a3ae69b939619c2b596","infoHashBuffer":{"type":"Buffer","data":[221,121,212,172,29,84,230,151,14,228,74,58,230,155,147,150,25,194,181,150]},"announce":[],"urlList":[]}}